<!DOCTYPE svg PUBLIC "-//W3C//DTD SVG 1.1//EN" "https://www.w3.org/Graphics/SVG/1.1/DTD/svg11.dtd">
<svg xmlns="http://www.w3.org/2000/svg" id="sfn-svg" class="sfn-workflow-graph" width="238" height="695">  
<g transform="translate(12,19.249998092651367)">
<g class="nodes">
<g class="node-container" transform="translate(106.53125,18.625)">
<g class="node anchor">
<circle class="shape" x="-15.875" y="-8.625" r="25.875"/>
<text class="label">
<tspan xml:space="preserve" text-anchor="middle" alignment-baseline="central">Start</tspan>
</text>
</g>
</g>
<g class="node-container" transform="translate(106.53125,641.125)">
<g class="node anchor">
<circle class="shape" x="-12.1875" y="-8.625" r="22.1875"/>
<text class="label">
<tspan xml:space="preserve" text-anchor="middle" alignment-baseline="central">End</tspan>
</text>
</g>
</g>
<g class="node-container" transform="translate(106.53125,80.875)">
<g class="node state Task NotYetStarted">
<rect class="shape" rx="5" ry="5" x="-80.65625" y="-18.625" width="161.3125" height="37.25"/>
<text class="label">
<tspan xml:space="preserve" text-anchor="middle" alignment-baseline="central">ScrapeRedshiftMetrics</tspan>
</text>
</g>
</g>
<g class="node-container" transform="translate(106.53125,143.125)">
<g class="node state Task NotYetStarted">
<rect class="shape" rx="5" ry="5" x="-88.03125" y="-18.625" width="176.0625" height="37.25"/>
<text class="label">
<tspan xml:space="preserve" text-anchor="middle" alignment-baseline="central">CreateDatasetImportJob</tspan>
</text>
</g>
</g>
<g class="node-container" transform="translate(106.53125,205.375)">
<g class="node state Task NotYetStarted">
<rect class="shape" rx="5" ry="5" x="-106.53125" y="-18.625" width="213.0625" height="37.25"/>
<text class="label">
<tspan xml:space="preserve" text-anchor="middle" alignment-baseline="central">CheckDatasetImportJobStatus</tspan>
</text>
</g>
</g>
<g class="node-container" transform="translate(106.53125,267.625)">
<g class="node state Task NotYetStarted">
<rect class="shape" rx="5" ry="5" x="-68.34375" y="-18.625" width="136.6875" height="37.25"/>
<text class="label">
<tspan xml:space="preserve" text-anchor="middle" alignment-baseline="central">CreateForecastJob</tspan>
</text>
</g>
</g>
<g class="node-container" transform="translate(106.53125,329.875)">
<g class="node state Task NotYetStarted">
<rect class="shape" rx="5" ry="5" x="-86.84375" y="-18.625" width="173.6875" height="37.25"/>
<text class="label">
<tspan xml:space="preserve" text-anchor="middle" alignment-baseline="central">CheckForecastJobStatus</tspan>
</text>
</g>
</g>
<g class="node-container" transform="translate(106.53125,392.125)">
<g class="node state Task NotYetStarted">
<rect class="shape" rx="5" ry="5" x="-74" y="-18.625" width="148" height="37.25"/>
<text class="label">
<tspan xml:space="preserve" text-anchor="middle" alignment-baseline="central">OldForecastCleanup</tspan>
</text>
</g>
</g>
<g class="node-container" transform="translate(106.53125,454.375)">
<g class="node state Task NotYetStarted">
<rect class="shape" rx="5" ry="5" x="-93.6875" y="-18.625" width="187.375" height="37.25"/>
<text class="label">
<tspan xml:space="preserve" text-anchor="middle" alignment-baseline="central">OldDatasetImportCleanup</tspan>
</text>
</g>
</g>
<g class="node-container" transform="translate(106.53125,516.625)">
<g class="node state Task NotYetStarted">
<rect class="shape" rx="5" ry="5" x="-65.265625" y="-18.625" width="130.53125" height="37.25"/>
<text class="label">
<tspan xml:space="preserve" text-anchor="middle" alignment-baseline="central">ScheduleRedshift</tspan>
</text>
</g>
</g>
<g class="node-container" transform="translate(106.53125,578.875)">
<g class="node state Succeed NotYetStarted">
<rect class="shape" rx="5" ry="5" x="-26.71875" y="-18.625" width="53.4375" height="37.25"/>
<text class="label">
<tspan xml:space="preserve" text-anchor="middle" alignment-baseline="central">Done</tspan>
</text>
</g>
</g>
</g>
<g class="edges">
<g class="edge">
<path class="path" marker-end="url(#arrowhead1)" d="M106.53125,99.5L106.53124999999999,101.58333333333331C106.53125,103.66666666666666,106.53125,107.83333333333331,106.53124999999999,111.99999999999999C106.53125,116.16666666666666,106.53125,120.33333333333333,106.53124999999999,122.41666666666666L106.53125,124.5" style="fill: none;"/>
<defs>
<marker id="arrowhead1" viewBox="0 0 10 10" refX="9" refY="5" markerUnits="strokeWidth" markerWidth="8" markerHeight="6" orient="auto">
<path d="M 0 0 L 10 5 L 0 10 z"/>
</marker>
</defs>
</g>
<g class="edge">
<path class="path" marker-end="url(#arrowhead2)" d="M106.53125,44.5L106.53124999999999,45.37499999999999C106.53125,46.25,106.53125,48,106.53124999999999,50.95833333333333C106.53125,53.916666666666664,106.53125,58.08333333333333,106.53124999999999,60.166666666666664L106.53125,62.25" style="fill: none;"/>
<defs>
<marker id="arrowhead2" viewBox="0 0 10 10" refX="9" refY="5" markerUnits="strokeWidth" markerWidth="8" markerHeight="6" orient="auto">
<path d="M 0 0 L 10 5 L 0 10 z"/>
</marker>
</defs>
</g>
<g class="edge">
<path class="path" marker-end="url(#arrowhead3)" d="M106.53125,161.75L106.53124999999999,163.83333333333331C106.53125,165.91666666666666,106.53125,170.08333333333331,106.53124999999999,174.25C106.53125,178.41666666666666,106.53125,182.58333333333331,106.53124999999999,184.66666666666666L106.53125,186.75" style="fill: none;"/>
<defs>
<marker id="arrowhead3" viewBox="0 0 10 10" refX="9" refY="5" markerUnits="strokeWidth" markerWidth="8" markerHeight="6" orient="auto">
<path d="M 0 0 L 10 5 L 0 10 z"/>
</marker>
</defs>
</g>
<g class="edge">
<path class="path" marker-end="url(#arrowhead4)" d="M106.53125,224L106.53124999999999,226.0833333333333C106.53125,228.16666666666663,106.53125,232.33333333333331,106.53124999999999,236.5C106.53125,240.66666666666666,106.53125,244.83333333333331,106.53124999999999,246.91666666666666L106.53125,249" style="fill: none;"/>
<defs>
<marker id="arrowhead4" viewBox="0 0 10 10" refX="9" refY="5" markerUnits="strokeWidth" markerWidth="8" markerHeight="6" orient="auto">
<path d="M 0 0 L 10 5 L 0 10 z"/>
</marker>
</defs>
</g>
<g class="edge">
<path class="path" marker-end="url(#arrowhead5)" d="M106.53125,286.25L106.53124999999999,288.3333333333333C106.53125,290.41666666666663,106.53125,294.5833333333333,106.53124999999999,298.75C106.53125,302.91666666666663,106.53125,307.0833333333333,106.53124999999999,309.1666666666667L106.53125,311.25" style="fill: none;"/>
<defs>
<marker id="arrowhead5" viewBox="0 0 10 10" refX="9" refY="5" markerUnits="strokeWidth" markerWidth="8" markerHeight="6" orient="auto">
<path d="M 0 0 L 10 5 L 0 10 z"/>
</marker>
</defs>
</g>
<g class="edge">
<path class="path" marker-end="url(#arrowhead6)" d="M106.53125,348.5L106.53124999999999,350.5833333333333C106.53125,352.66666666666663,106.53125,356.8333333333333,106.53124999999999,361C106.53125,365.16666666666663,106.53125,369.3333333333333,106.53124999999999,371.4166666666667L106.53125,373.5" style="fill: none;"/>
<defs>
<marker id="arrowhead6" viewBox="0 0 10 10" refX="9" refY="5" markerUnits="strokeWidth" markerWidth="8" markerHeight="6" orient="auto">
<path d="M 0 0 L 10 5 L 0 10 z"/>
</marker>
</defs>
</g>
<g class="edge">
<path class="path" marker-end="url(#arrowhead7)" d="M106.53125,410.75L106.53124999999999,412.83333333333326C106.53125,414.91666666666663,106.53125,419.08333333333326,106.53124999999999,423.24999999999994C106.53125,427.41666666666663,106.53125,431.5833333333333,106.53124999999999,433.66666666666663L106.53125,435.75" style="fill: none;"/>
<defs>
<marker id="arrowhead7" viewBox="0 0 10 10" refX="9" refY="5" markerUnits="strokeWidth" markerWidth="8" markerHeight="6" orient="auto">
<path d="M 0 0 L 10 5 L 0 10 z"/>
</marker>
</defs>
</g>
<g class="edge">
<path class="path" marker-end="url(#arrowhead8)" d="M106.53125,473L106.53124999999999,475.08333333333326C106.53125,477.16666666666663,106.53125,481.33333333333326,106.53124999999999,485.49999999999994C106.53125,489.66666666666663,106.53125,493.8333333333333,106.53124999999999,495.91666666666663L106.53125,498" style="fill: none;"/>
<defs>
<marker id="arrowhead8" viewBox="0 0 10 10" refX="9" refY="5" markerUnits="strokeWidth" markerWidth="8" markerHeight="6" orient="auto">
<path d="M 0 0 L 10 5 L 0 10 z"/>
</marker>
</defs>
</g>
<g class="edge">
<path class="path" marker-end="url(#arrowhead9)" d="M106.53125,535.25L106.53124999999999,537.3333333333333C106.53125,539.4166666666666,106.53125,543.5833333333333,106.53124999999999,547.75C106.53125,551.9166666666666,106.53125,556.0833333333333,106.53124999999999,558.1666666666666L106.53125,560.25" style="fill: none;"/>
<defs>
<marker id="arrowhead9" viewBox="0 0 10 10" refX="9" refY="5" markerUnits="strokeWidth" markerWidth="8" markerHeight="6" orient="auto">
<path d="M 0 0 L 10 5 L 0 10 z"/>
</marker>
</defs>
</g>
<g class="edge">
<path class="path" marker-end="url(#arrowhead10)" d="M106.53125,597.5L106.53124999999999,599.5833333333333C106.53125,601.6666666666666,106.53125,605.8333333333333,106.53124999999999,609.40625C106.53125,612.9791666666666,106.53125,615.9583333333333,106.53124999999999,617.4479166666666L106.53125,618.9375" style="fill: none;"/>
<defs>
<marker id="arrowhead10" viewBox="0 0 10 10" refX="9" refY="5" markerUnits="strokeWidth" markerWidth="8" markerHeight="6" orient="auto">
<path d="M 0 0 L 10 5 L 0 10 z"/>
</marker>
</defs>
</g>
</g>
</g>
<style xmlns="http://www.w3.org/1999/xhtml">.node &gt; .shape {stroke: #555555;stroke-width: 0.6px;fill: #FFFFFF;} path {stroke: #555;background-color: #555;stroke-width: 1px;} .node.state.NotYetStarted &gt; .shape,.node.state.Container &gt; .shape {stroke-dasharray: 5 2;} .node.state.Failed &gt; .shape,rect.legend.Failed {fill: #DE322F;} .node.state.CaughtError &gt; .shape,rect.legend.CaughtError {fill: #FFA500;} .node.state.Succeeded &gt; .shape,rect.legend.Succeeded {fill: #2BD62E;} .node.state.InProgress &gt; .shape,rect.legend.InProgress {fill: #53c9ed;} .node.state.Cancelled &gt; .shape,rect.legend.Cancelled {fill: #dddddd;} .node.anchor &gt; .shape {fill: #FFDA75;} .node.state.hovered:not(.selected):not(.NotYetStarted) &gt; .shape,.node.selected &gt; .shape {stroke: #555555;stroke-width: 2px;} .node.state.Container.Failed &gt; .shape {fill: #EE9592;} .node.state.Container.CaughtError &gt; .shape {fill: #FFD27F;} .node.state.Container.Succeeded &gt; .shape {fill: #91EA9A;} .node.state.Container.InProgress &gt; .shape {fill :#A9E4F7;} .node.state.Container.Cancelled &gt; .shape {fill: #EEEEEE;} marker {fill: #555555;} .node.anchor,.node.state.NotYetStarted {cursor: default;} .node.state {cursor: pointer;} tspan .label {font-weight: normal;font-size: 12px;text-shadow: none;} </style>
</svg>