<!DOCTYPE svg PUBLIC "-//W3C//DTD SVG 1.1//EN" "https://www.w3.org/Graphics/SVG/1.1/DTD/svg11.dtd"><svg xmlns="http://www.w3.org/2000/svg" id="sfn-svg" class="sfn-workflow-graph" width="240" height="820">  
<g transform="translate(12,19.249998092651367)"><g class="nodes"><g class="node-container" transform="translate(107.84375,18.625)"><g class="node anchor"><circle class="shape" x="-15.875" y="-8.625" r="25.875"/><text class="label"><tspan xml:space="preserve" text-anchor="middle" alignment-baseline="central">Start</tspan></text></g></g><g class="node-container" transform="translate(107.84375,765.625)"><g class="node anchor"><circle class="shape" x="-12.1875" y="-8.625" r="22.1875"/><text class="label"><tspan xml:space="preserve" text-anchor="middle" alignment-baseline="central">End</tspan></text></g></g><g class="node-container" transform="translate(107.84375,80.875)"><g class="node state Task NotYetStarted"><rect class="shape" rx="5" ry="5" x="-80.65625" y="-18.625" width="161.3125" height="37.25"/><text class="label"><tspan xml:space="preserve" text-anchor="middle" alignment-baseline="central">ScrapeRedshiftMetrics</tspan></text></g></g><g class="node-container" transform="translate(107.84375,143.125)"><g class="node state Task NotYetStarted"><rect class="shape" rx="5" ry="5" x="-88.03125" y="-18.625" width="176.0625" height="37.25"/><text class="label"><tspan xml:space="preserve" text-anchor="middle" alignment-baseline="central">CreateDatasetImportJob</tspan></text></g></g><g class="node-container" transform="translate(107.84375,205.375)"><g class="node state Task NotYetStarted"><rect class="shape" rx="5" ry="5" x="-106.53125" y="-18.625" width="213.0625" height="37.25"/><text class="label"><tspan xml:space="preserve" text-anchor="middle" alignment-baseline="central">CheckDatasetImportJobStatus</tspan></text></g></g><g class="node-container" transform="translate(107.84375,267.625)"><g class="node state Task NotYetStarted"><rect class="shape" rx="5" ry="5" x="-68.34375" y="-18.625" width="136.6875" height="37.25"/><text class="label"><tspan xml:space="preserve" text-anchor="middle" alignment-baseline="central">CreateForecastJob</tspan></text></g></g><g class="node-container" transform="translate(107.84375,329.875)"><g class="node state Task NotYetStarted"><rect class="shape" rx="5" ry="5" x="-86.84375" y="-18.625" width="173.6875" height="37.25"/><text class="label"><tspan xml:space="preserve" text-anchor="middle" alignment-baseline="central">CheckForecastJobStatus</tspan></text></g></g><g class="node-container" transform="translate(107.84375,392.125)"><g class="node state Task NotYetStarted"><rect class="shape" rx="5" ry="5" x="-89.34375" y="-18.625" width="178.6875" height="37.25"/><text class="label"><tspan xml:space="preserve" text-anchor="middle" alignment-baseline="central">CreateForecastExportJob</tspan></text></g></g><g class="node-container" transform="translate(107.84375,454.375)"><g class="node state Task NotYetStarted"><rect class="shape" rx="5" ry="5" x="-107.84375" y="-18.625" width="215.6875" height="37.25"/><text class="label"><tspan xml:space="preserve" text-anchor="middle" alignment-baseline="central">CheckForecastExportJobStatus</tspan></text></g></g><g class="node-container" transform="translate(107.84375,516.625)"><g class="node state Task NotYetStarted"><rect class="shape" rx="5" ry="5" x="-74" y="-18.625" width="148" height="37.25"/><text class="label"><tspan xml:space="preserve" text-anchor="middle" alignment-baseline="central">OldForecastCleanup</tspan></text></g></g><g class="node-container" transform="translate(107.84375,578.875)"><g class="node state Task NotYetStarted"><rect class="shape" rx="5" ry="5" x="-93.6875" y="-18.625" width="187.375" height="37.25"/><text class="label"><tspan xml:space="preserve" text-anchor="middle" alignment-baseline="central">OldDatasetImportCleanup</tspan></text></g></g><g class="node-container" transform="translate(107.84375,641.125)"><g class="node state Task NotYetStarted"><rect class="shape" rx="5" ry="5" x="-65.265625" y="-18.625" width="130.53125" height="37.25"/><text class="label"><tspan xml:space="preserve" text-anchor="middle" alignment-baseline="central">ScheduleRedshift</tspan></text></g></g><g class="node-container" transform="translate(107.84375,703.375)"><g class="node state Succeed NotYetStarted"><rect class="shape" rx="5" ry="5" x="-26.71875" y="-18.625" width="53.4375" height="37.25"/><text class="label"><tspan xml:space="preserve" text-anchor="middle" alignment-baseline="central">Done</tspan></text></g></g></g><g class="edges"><g class="edge"><path class="path" marker-end="url(#arrowhead13)" d="M107.84375,99.5L107.84374999999999,101.58333333333331C107.84375,103.66666666666666,107.84375,107.83333333333331,107.84374999999999,111.99999999999999C107.84375,116.16666666666666,107.84375,120.33333333333333,107.84374999999999,122.41666666666666L107.84375,124.5" style="fill: none;"/><defs><marker id="arrowhead13" viewBox="0 0 10 10" refX="9" refY="5" markerUnits="strokeWidth" markerWidth="8" markerHeight="6" orient="auto"><path d="M 0 0 L 10 5 L 0 10 z"/></marker></defs></g><g class="edge"><path class="path" marker-end="url(#arrowhead14)" d="M107.84375,44.5L107.84374999999999,45.37499999999999C107.84375,46.25,107.84375,48,107.84374999999999,50.95833333333333C107.84375,53.916666666666664,107.84375,58.08333333333333,107.84374999999999,60.166666666666664L107.84375,62.25" style="fill: none;"/><defs><marker id="arrowhead14" viewBox="0 0 10 10" refX="9" refY="5" markerUnits="strokeWidth" markerWidth="8" markerHeight="6" orient="auto"><path d="M 0 0 L 10 5 L 0 10 z"/></marker></defs></g><g class="edge"><path class="path" marker-end="url(#arrowhead15)" d="M107.84375,161.75L107.84374999999999,163.83333333333331C107.84375,165.91666666666666,107.84375,170.08333333333331,107.84374999999999,174.25C107.84375,178.41666666666666,107.84375,182.58333333333331,107.84374999999999,184.66666666666666L107.84375,186.75" style="fill: none;"/><defs><marker id="arrowhead15" viewBox="0 0 10 10" refX="9" refY="5" markerUnits="strokeWidth" markerWidth="8" markerHeight="6" orient="auto"><path d="M 0 0 L 10 5 L 0 10 z"/></marker></defs></g><g class="edge"><path class="path" marker-end="url(#arrowhead16)" d="M107.84375,224L107.84374999999999,226.0833333333333C107.84375,228.16666666666663,107.84375,232.33333333333331,107.84374999999999,236.5C107.84375,240.66666666666666,107.84375,244.83333333333331,107.84374999999999,246.91666666666666L107.84375,249" style="fill: none;"/><defs><marker id="arrowhead16" viewBox="0 0 10 10" refX="9" refY="5" markerUnits="strokeWidth" markerWidth="8" markerHeight="6" orient="auto"><path d="M 0 0 L 10 5 L 0 10 z"/></marker></defs></g><g class="edge"><path class="path" marker-end="url(#arrowhead17)" d="M107.84375,286.25L107.84374999999999,288.3333333333333C107.84375,290.41666666666663,107.84375,294.5833333333333,107.84374999999999,298.75C107.84375,302.91666666666663,107.84375,307.0833333333333,107.84374999999999,309.1666666666667L107.84375,311.25" style="fill: none;"/><defs><marker id="arrowhead17" viewBox="0 0 10 10" refX="9" refY="5" markerUnits="strokeWidth" markerWidth="8" markerHeight="6" orient="auto"><path d="M 0 0 L 10 5 L 0 10 z"/></marker></defs></g><g class="edge"><path class="path" marker-end="url(#arrowhead18)" d="M107.84375,348.5L107.84374999999999,350.5833333333333C107.84375,352.66666666666663,107.84375,356.8333333333333,107.84374999999999,361C107.84375,365.16666666666663,107.84375,369.3333333333333,107.84374999999999,371.4166666666667L107.84375,373.5" style="fill: none;"/><defs><marker id="arrowhead18" viewBox="0 0 10 10" refX="9" refY="5" markerUnits="strokeWidth" markerWidth="8" markerHeight="6" orient="auto"><path d="M 0 0 L 10 5 L 0 10 z"/></marker></defs></g><g class="edge"><path class="path" marker-end="url(#arrowhead19)" d="M107.84375,410.75L107.84374999999999,412.83333333333326C107.84375,414.91666666666663,107.84375,419.08333333333326,107.84374999999999,423.24999999999994C107.84375,427.41666666666663,107.84375,431.5833333333333,107.84374999999999,433.66666666666663L107.84375,435.75" style="fill: none;"/><defs><marker id="arrowhead19" viewBox="0 0 10 10" refX="9" refY="5" markerUnits="strokeWidth" markerWidth="8" markerHeight="6" orient="auto"><path d="M 0 0 L 10 5 L 0 10 z"/></marker></defs></g><g class="edge"><path class="path" marker-end="url(#arrowhead20)" d="M107.84375,473L107.84374999999999,475.08333333333326C107.84375,477.16666666666663,107.84375,481.33333333333326,107.84374999999999,485.49999999999994C107.84375,489.66666666666663,107.84375,493.8333333333333,107.84374999999999,495.91666666666663L107.84375,498" style="fill: none;"/><defs><marker id="arrowhead20" viewBox="0 0 10 10" refX="9" refY="5" markerUnits="strokeWidth" markerWidth="8" markerHeight="6" orient="auto"><path d="M 0 0 L 10 5 L 0 10 z"/></marker></defs></g><g class="edge"><path class="path" marker-end="url(#arrowhead21)" d="M107.84375,535.25L107.84374999999999,537.3333333333333C107.84375,539.4166666666666,107.84375,543.5833333333333,107.84374999999999,547.75C107.84375,551.9166666666666,107.84375,556.0833333333333,107.84374999999999,558.1666666666666L107.84375,560.25" style="fill: none;"/><defs><marker id="arrowhead21" viewBox="0 0 10 10" refX="9" refY="5" markerUnits="strokeWidth" markerWidth="8" markerHeight="6" orient="auto"><path d="M 0 0 L 10 5 L 0 10 z"/></marker></defs></g><g class="edge"><path class="path" marker-end="url(#arrowhead22)" d="M107.84375,597.5L107.84374999999999,599.5833333333333C107.84375,601.6666666666666,107.84375,605.8333333333333,107.84374999999999,610C107.84375,614.1666666666666,107.84375,618.3333333333333,107.84374999999999,620.4166666666666L107.84375,622.5" style="fill: none;"/><defs><marker id="arrowhead22" viewBox="0 0 10 10" refX="9" refY="5" markerUnits="strokeWidth" markerWidth="8" markerHeight="6" orient="auto"><path d="M 0 0 L 10 5 L 0 10 z"/></marker></defs></g><g class="edge"><path class="path" marker-end="url(#arrowhead23)" d="M107.84375,659.75L107.84374999999999,661.8333333333333C107.84375,663.9166666666666,107.84375,668.0833333333333,107.84374999999999,672.25C107.84375,676.4166666666666,107.84375,680.5833333333333,107.84374999999999,682.6666666666666L107.84375,684.75" style="fill: none;"/><defs><marker id="arrowhead23" viewBox="0 0 10 10" refX="9" refY="5" markerUnits="strokeWidth" markerWidth="8" markerHeight="6" orient="auto"><path d="M 0 0 L 10 5 L 0 10 z"/></marker></defs></g><g class="edge"><path class="path" marker-end="url(#arrowhead24)" d="M107.84375,722L107.84374999999999,724.0833333333333C107.84375,726.1666666666666,107.84375,730.3333333333333,107.84374999999999,733.90625C107.84375,737.4791666666666,107.84375,740.4583333333333,107.84374999999999,741.9479166666666L107.84375,743.4375" style="fill: none;"/><defs><marker id="arrowhead24" viewBox="0 0 10 10" refX="9" refY="5" markerUnits="strokeWidth" markerWidth="8" markerHeight="6" orient="auto"><path d="M 0 0 L 10 5 L 0 10 z"/></marker></defs></g></g></g><style xmlns="http://www.w3.org/1999/xhtml">.node &gt; .shape {stroke: #555555;stroke-width: 0.6px;fill: #FFFFFF;} path {stroke: #555;background-color: #555;stroke-width: 1px;} .node.state.NotYetStarted &gt; .shape,.node.state.Container &gt; .shape {stroke-dasharray: 5 2;} .node.state.Failed &gt; .shape,rect.legend.Failed {fill: #DE322F;} .node.state.CaughtError &gt; .shape,rect.legend.CaughtError {fill: #FFA500;} .node.state.Succeeded &gt; .shape,rect.legend.Succeeded {fill: #2BD62E;} .node.state.InProgress &gt; .shape,rect.legend.InProgress {fill: #53c9ed;} .node.state.Cancelled &gt; .shape,rect.legend.Cancelled {fill: #dddddd;} .node.anchor &gt; .shape {fill: #FFDA75;} .node.state.hovered:not(.selected):not(.NotYetStarted) &gt; .shape,.node.selected &gt; .shape {stroke: #555555;stroke-width: 2px;} .node.state.Container.Failed &gt; .shape {fill: #EE9592;} .node.state.Container.CaughtError &gt; .shape {fill: #FFD27F;} .node.state.Container.Succeeded &gt; .shape {fill: #91EA9A;} .node.state.Container.InProgress &gt; .shape {fill :#A9E4F7;} .node.state.Container.Cancelled &gt; .shape {fill: #EEEEEE;} marker {fill: #555555;} .node.anchor,.node.state.NotYetStarted {cursor: default;} .node.state {cursor: pointer;} tspan .label {font-weight: normal;font-size: 12px;text-shadow: none;} </style></svg>